<?xml version="1.0" encoding="UTF-8" standalone="no"?>
<svg width="98px" height="22px" viewBox="0 0 98 22" version="1.1" xmlns="http://www.w3.org/2000/svg" xmlns:xlink="http://www.w3.org/1999/xlink" xmlns:sketch="http://www.bohemiancoding.com/sketch/ns">
    <!-- Generator: Sketch 3.3.1 (12002) - http://www.bohemiancoding.com/sketch -->
    <title>Path 1 + Moviz</title>
    <desc>Created with Sketch.</desc>
    <defs></defs>
    <g id="Page-1" stroke="none" stroke-width="1" fill="none" fill-rule="evenodd" sketch:type="MSPage">
        <g id="Path-1-+-Moviz" sketch:type="MSLayerGroup" fill="#DDDDDD">
            <path d="M18.8308584,21.2637794 C18.8308584,21.2637794 24.5830901,19.4490138 26.7660074,18.6097797 C28.9489247,17.7705456 28.6175657,18.3231829 28.6175657,15.1250367 C28.6175657,11.9268904 28.5976053,3.80833583 28.5976053,3.80833583 C28.5976053,3.80833583 28.7423932,0.745742121 25.2266667,0.745742121 L8.97652358,0.745742121 C8.97652358,0.745742121 5.65466712,0.810092339 5.65466709,3.6948292 C5.65466705,6.57956606 5.65466709,7.03463531 5.65466709,7.03463531 L2.56764412,5.2538324 C2.56764412,5.2538324 0.760773418,3.9720416 0.760773418,5.86083966 L0.760773418,13.3732807 C0.760773418,13.3732807 0.598110366,15.330004 2.74699057,13.6530254 C4.89587076,11.9760468 5.80794573,11.2555329 5.80794573,11.2555329 L5.80794573,15.6855975 C5.80794573,15.6855975 5.46042476,17.9448275 8.27932181,17.9448275 L15.8930051,17.9448275 L15.8930051,4.54597989 L18.8308589,4.54597989 L18.8308584,18.4068978 L18.8308584,21.2637794 Z" id="Path-1" sketch:type="MSShapeGroup"></path>
            <path d="M50.6552546,1.2779831 L48.2326548,1.2779831 L41.9962592,14.5663029 L35.7598637,1.2779831 L33.36125,1.2779831 L33.36125,18.0682788 L35.8558082,18.0682788 L35.8558082,6.89073911 L40.9648554,18.0682788 L43.003677,18.0682788 L48.1606964,6.86675297 L48.1606964,18.0682788 L50.6552546,18.0682788 L50.6552546,1.2779831 Z M59.482153,5.4515709 C56.8436779,5.4515709 53.2697435,7.5383648 53.2697435,11.8558694 C53.2697435,16.1973602 56.8436779,18.2361818 59.482153,18.2361818 C62.0966419,18.2361818 65.6705762,16.1973602 65.6705762,11.8558694 C65.6705762,7.5383648 62.0966419,5.4515709 59.482153,5.4515709 L59.482153,5.4515709 Z M59.482153,7.5383648 C61.2091548,7.5383648 63.2479764,8.95354687 63.2479764,11.8558694 C63.2479764,14.7342058 61.2091548,16.1254018 59.482153,16.1254018 C57.731165,16.1254018 55.6923433,14.7342058 55.6923433,11.8558694 C55.6923433,8.95354687 57.731165,7.5383648 59.482153,7.5383648 L59.482153,7.5383648 Z M78.9828822,5.59548772 L76.4163655,5.59548772 L72.7704727,13.9426633 L69.1005938,5.59548772 L66.5580633,5.59548772 L72.5545975,18.0682788 L72.9623618,18.0682788 L78.9828822,5.59548772 Z M83.6601788,1.2779831 L81.1896067,1.2779831 L81.1896067,3.48470768 L83.6601788,3.48470768 L83.6601788,1.2779831 Z M83.6601788,5.59548772 L81.1896067,5.59548772 L81.1896067,18.0682788 L83.6601788,18.0682788 L83.6601788,5.59548772 Z M97.2603184,5.59548772 L86.3466262,5.59548772 L86.3466262,7.68228162 L93.3026058,7.68228162 L86.0587925,18.0682788 L96.9484986,18.0682788 L96.9484986,15.9574988 L89.9925189,15.9574988 L97.2603184,5.59548772 Z" id="Moviz" sketch:type="MSShapeGroup"></path>
        </g>
    </g>
</svg>