<?xml version="1.0" encoding="UTF-8" standalone="no"?>
<svg width="65px" height="18px" viewBox="0 0 65 18" version="1.1" xmlns="http://www.w3.org/2000/svg" xmlns:xlink="http://www.w3.org/1999/xlink" xmlns:sketch="http://www.bohemiancoding.com/sketch/ns">
    <!-- Generator: Sketch 3.3.1 (12002) - http://www.bohemiancoding.com/sketch -->
    <title>Moviz</title>
    <desc>Created with Sketch.</desc>
    <defs></defs>
    <g id="Page-1" stroke="none" stroke-width="1" fill="none" fill-rule="evenodd" sketch:type="MSPage">
        <path d="M17.6552546,0.277983099 L15.2326548,0.277983099 L8.99625924,13.5663029 L2.75986368,0.277983099 L0.36125,0.277983099 L0.36125,17.0682788 L2.85580823,17.0682788 L2.85580823,5.89073911 L7.96485536,17.0682788 L10.003677,17.0682788 L15.1606964,5.86675297 L15.1606964,17.0682788 L17.6552546,17.0682788 L17.6552546,0.277983099 Z M26.482153,4.4515709 C23.8436779,4.4515709 20.2697435,6.5383648 20.2697435,10.8558694 C20.2697435,15.1973602 23.8436779,17.2361818 26.482153,17.2361818 C29.0966419,17.2361818 32.6705762,15.1973602 32.6705762,10.8558694 C32.6705762,6.5383648 29.0966419,4.4515709 26.482153,4.4515709 L26.482153,4.4515709 Z M26.482153,6.5383648 C28.2091548,6.5383648 30.2479764,7.95354687 30.2479764,10.8558694 C30.2479764,13.7342058 28.2091548,15.1254018 26.482153,15.1254018 C24.731165,15.1254018 22.6923433,13.7342058 22.6923433,10.8558694 C22.6923433,7.95354687 24.731165,6.5383648 26.482153,6.5383648 L26.482153,6.5383648 Z M45.9828822,4.59548772 L43.4163655,4.59548772 L39.7704727,12.9426633 L36.1005938,4.59548772 L33.5580633,4.59548772 L39.5545975,17.0682788 L39.9623618,17.0682788 L45.9828822,4.59548772 Z M50.6601788,0.277983099 L48.1896067,0.277983099 L48.1896067,2.48470768 L50.6601788,2.48470768 L50.6601788,0.277983099 Z M50.6601788,4.59548772 L48.1896067,4.59548772 L48.1896067,17.0682788 L50.6601788,17.0682788 L50.6601788,4.59548772 Z M64.2603184,4.59548772 L53.3466262,4.59548772 L53.3466262,6.68228162 L60.3026058,6.68228162 L53.0587925,17.0682788 L63.9484986,17.0682788 L63.9484986,14.9574988 L56.9925189,14.9574988 L64.2603184,4.59548772 Z" id="Moviz" fill="#DDDDDD" sketch:type="MSShapeGroup"></path>
    </g>
</svg>