<?xml version="1.0" encoding="UTF-8" standalone="no"?>
<svg width="29px" height="22px" viewBox="0 0 29 22" version="1.1" xmlns="http://www.w3.org/2000/svg" xmlns:xlink="http://www.w3.org/1999/xlink" xmlns:sketch="http://www.bohemiancoding.com/sketch/ns">
    <!-- Generator: Sketch 3.3.1 (12002) - http://www.bohemiancoding.com/sketch -->
    <title>Path 1</title>
    <desc>Created with Sketch.</desc>
    <defs></defs>
    <g id="Page-1" stroke="none" stroke-width="1" fill="none" fill-rule="evenodd" sketch:type="MSPage">
        <path d="M18.8308584,21.2637794 C18.8308584,21.2637794 24.5830901,19.4490138 26.7660074,18.6097797 C28.9489247,17.7705456 28.6175657,18.3231829 28.6175657,15.1250367 C28.6175657,11.9268904 28.5976053,3.80833583 28.5976053,3.80833583 C28.5976053,3.80833583 28.7423932,0.745742121 25.2266667,0.745742121 L8.97652358,0.745742121 C8.97652358,0.745742121 5.65466712,0.810092339 5.65466709,3.6948292 C5.65466705,6.57956606 5.65466709,7.03463531 5.65466709,7.03463531 L2.56764412,5.2538324 C2.56764412,5.2538324 0.760773418,3.9720416 0.760773418,5.86083966 L0.760773418,13.3732807 C0.760773418,13.3732807 0.598110366,15.330004 2.74699057,13.6530254 C4.89587076,11.9760468 5.80794573,11.2555329 5.80794573,11.2555329 L5.80794573,15.6855975 C5.80794573,15.6855975 5.46042476,17.9448275 8.27932181,17.9448275 L15.8930051,17.9448275 L15.8930051,4.54597989 L18.8308589,4.54597989 L18.8308584,18.4068978 L18.8308584,21.2637794 Z" id="Path-1" fill="#DDDDDD" sketch:type="MSShapeGroup"></path>
    </g>
</svg>